<?xml version="1.0" standalone="no"?>
<!DOCTYPE svg PUBLIC "-//W3C//DTD SVG 20010904//EN"
 "http://www.w3.org/TR/2001/REC-SVG-20010904/DTD/svg10.dtd">
<svg version="1.0" xmlns="http://www.w3.org/2000/svg"
 width="700.000000pt" height="700.000000pt" viewBox="0 0 700.000000 700.000000"
 preserveAspectRatio="xMidYMid meet">
<metadata>
Created by potrace 1.14, written by Peter Selinger 2001-2017
</metadata>
<g transform="translate(0.000000,700.000000) scale(0.100000,-0.100000)"
fill="#000000" stroke="none">
<path d="M1295 5943 c-183 -41 -294 -99 -401 -211 -178 -186 -239 -466 -155
-707 17 -49 40 -102 51 -117 11 -15 20 -30 20 -34 0 -10 68 -92 109 -132 47
-46 134 -103 207 -135 138 -61 2 -58 2399 -54 1205 1 2206 6 2225 11 59 13
162 57 220 94 247 156 372 444 315 723 -47 234 -194 416 -411 512 -135 60 0
56 -2379 55 -1199 0 -2189 -2 -2200 -5z"/>
<path d="M1052 2913 c3 -1175 5 -1293 20 -1344 52 -171 157 -313 298 -403 97
-62 161 -88 264 -106 40 -7 672 -10 1875 -10 1779 0 1818 1 1899 20 169 40
320 141 413 276 52 76 81 138 104 229 l24 90 1 1268 0 1267 -2450 0 -2450 0 2
-1287z m2950 549 c77 -38 130 -92 166 -171 22 -46 27 -71 27 -141 0 -71 -4
-94 -26 -141 -37 -79 -90 -133 -167 -171 l-67 -33 -435 0 -436 0 -67 34 c-78
40 -129 92 -163 166 -73 160 -14 356 134 442 85 50 106 52 552 50 l415 -2 67
-33z"/>
</g>
</svg>
